<svg width="20" height="20" fill="none" xmlns="http://www.w3.org/2000/svg"><g clip-path="url(#a)"><path d="M16.7428 9.04016 8.0471.39873a1.37144 1.37144 0 0 0-1.93286 0 1.3529 1.3529 0 0 0-.29574 1.47993 1.35295 1.35295 0 0 0 .29574.44007l7.72996 7.68147-7.72996 7.6814a1.35406 1.35406 0 0 0-.39976.9607 1.35406 1.35406 0 0 0 .39976.9607c.25728.2545.60455.3972.96643.3972.36187 0 .70914-.1427.96643-.3972l8.6943-8.6414c.1266-.1258.2271-.2753.2957-.4401.0686-.1647.1039-.3414.1039-.5199 0-.17848-.0353-.35519-.1039-.51995a1.35362 1.35362 0 0 0-.2957-.44007" fill="#008EC1"/></g><defs><clipPath id="a"><path fill="#008EC1" d="M0 0h20v20H0z"/></clipPath></defs></svg>