<svg width="20" height="20" fill="none" xmlns="http://www.w3.org/2000/svg"><g clip-path="url(#a)" fill="#666"><path d="M1.30384 20c-.3389 0-.65898-.1318-.92257-.3766-.50836-.5083-.50836-1.3367 0-1.8451l7.77594-7.7759L.38127 2.22641C-.1271 1.71805-.1271.88962.38127.38127c.50835-.50836 1.33678-.50836 1.84514 0l8.69849 8.69851c.5084.50836.5084 1.33682 0 1.84512l-8.69849 8.6797c-.26359.2636-.58367.3766-.92257.3766V20Z"/><path d="M9.99378 20c-.33891 0-.65898-.1318-.92257-.3766-.50836-.5083-.50836-1.3367 0-1.8451l7.77599-7.7759-7.77599-7.77599c-.50836-.50836-.50836-1.33679 0-1.84514.50835-.50836 1.33679-.50836 1.84509 0l8.6986 8.69851c.5083.50836.5083 1.33682 0 1.84512l-8.6986 8.6797c-.2635.2636-.5836.3766-.92252.3766V20Z"/></g><defs><clipPath id="a"><path fill="#666" d="M0 0h20v20H0z"/></clipPath></defs></svg>