<svg width="240" height="30" viewBox="0 0 240 30" fill="none" xmlns="http://www.w3.org/2000/svg">
<rect width="240" height="30" fill="#CEEFE2"/>
<path d="M103.759 19V10.2727H105.604V17.4787H109.345V19H103.759ZM118.247 14.6364C118.247 15.5881 118.067 16.3977 117.706 17.0653C117.348 17.733 116.859 18.2429 116.24 18.5952C115.624 18.9446 114.93 19.1193 114.161 19.1193C113.385 19.1193 112.689 18.9432 112.072 18.5909C111.456 18.2386 110.969 17.7287 110.611 17.0611C110.253 16.3935 110.074 15.5852 110.074 14.6364C110.074 13.6847 110.253 12.875 110.611 12.2074C110.969 11.5398 111.456 11.0312 112.072 10.6818C112.689 10.3295 113.385 10.1534 114.161 10.1534C114.93 10.1534 115.624 10.3295 116.24 10.6818C116.859 11.0312 117.348 11.5398 117.706 12.2074C118.067 12.875 118.247 13.6847 118.247 14.6364ZM116.376 14.6364C116.376 14.0199 116.284 13.5 116.099 13.0767C115.918 12.6534 115.661 12.3324 115.328 12.1136C114.996 11.8949 114.607 11.7855 114.161 11.7855C113.714 11.7855 113.325 11.8949 112.993 12.1136C112.661 12.3324 112.402 12.6534 112.217 13.0767C112.036 13.5 111.945 14.0199 111.945 14.6364C111.945 15.2528 112.036 15.7727 112.217 16.196C112.402 16.6193 112.661 16.9403 112.993 17.1591C113.325 17.3778 113.714 17.4872 114.161 17.4872C114.607 17.4872 114.996 17.3778 115.328 17.1591C115.661 16.9403 115.918 16.6193 116.099 16.196C116.284 15.7727 116.376 15.2528 116.376 14.6364ZM125.401 13.0938C125.341 12.8864 125.257 12.7031 125.15 12.544C125.042 12.3821 124.909 12.2457 124.753 12.1349C124.6 12.0213 124.424 11.9347 124.225 11.875C124.029 11.8153 123.811 11.7855 123.573 11.7855C123.127 11.7855 122.735 11.8963 122.397 12.1179C122.061 12.3395 121.8 12.6619 121.613 13.0852C121.425 13.5057 121.331 14.0199 121.331 14.6278C121.331 15.2358 121.424 15.7528 121.608 16.179C121.793 16.6051 122.054 16.9304 122.392 17.1548C122.73 17.3764 123.13 17.4872 123.59 17.4872C124.007 17.4872 124.364 17.4134 124.659 17.2656C124.958 17.1151 125.185 16.9034 125.341 16.6307C125.5 16.358 125.58 16.0355 125.58 15.6634L125.955 15.7188H123.705V14.3295H127.357V15.429C127.357 16.196 127.195 16.8551 126.871 17.4062C126.547 17.9545 126.101 18.3778 125.533 18.6761C124.965 18.9716 124.314 19.1193 123.581 19.1193C122.763 19.1193 122.044 18.9389 121.425 18.5781C120.806 18.2145 120.323 17.6989 119.976 17.0312C119.632 16.3608 119.461 15.5653 119.461 14.6449C119.461 13.9375 119.563 13.3068 119.767 12.7528C119.975 12.196 120.265 11.7244 120.637 11.3381C121.009 10.9517 121.442 10.6577 121.936 10.456C122.431 10.2543 122.966 10.1534 123.543 10.1534C124.037 10.1534 124.498 10.2259 124.924 10.3707C125.35 10.5128 125.728 10.7145 126.057 10.9759C126.39 11.2372 126.661 11.5483 126.871 11.9091C127.081 12.267 127.216 12.6619 127.276 13.0938H125.401ZM136.763 14.6364C136.763 15.5881 136.582 16.3977 136.222 17.0653C135.864 17.733 135.375 18.2429 134.756 18.5952C134.139 18.9446 133.446 19.1193 132.676 19.1193C131.901 19.1193 131.205 18.9432 130.588 18.5909C129.972 18.2386 129.484 17.7287 129.126 17.0611C128.768 16.3935 128.589 15.5852 128.589 14.6364C128.589 13.6847 128.768 12.875 129.126 12.2074C129.484 11.5398 129.972 11.0312 130.588 10.6818C131.205 10.3295 131.901 10.1534 132.676 10.1534C133.446 10.1534 134.139 10.3295 134.756 10.6818C135.375 11.0312 135.864 11.5398 136.222 12.2074C136.582 12.875 136.763 13.6847 136.763 14.6364ZM134.892 14.6364C134.892 14.0199 134.8 13.5 134.615 13.0767C134.433 12.6534 134.176 12.3324 133.844 12.1136C133.511 11.8949 133.122 11.7855 132.676 11.7855C132.23 11.7855 131.841 11.8949 131.509 12.1136C131.176 12.3324 130.918 12.6534 130.733 13.0767C130.551 13.5 130.46 14.0199 130.46 14.6364C130.46 15.2528 130.551 15.7727 130.733 16.196C130.918 16.6193 131.176 16.9403 131.509 17.1591C131.841 17.3778 132.23 17.4872 132.676 17.4872C133.122 17.4872 133.511 17.3778 133.844 17.1591C134.176 16.9403 134.433 16.6193 134.615 16.196C134.8 15.7727 134.892 15.2528 134.892 14.6364Z" fill="black"/>
</svg>
