<svg width="20" height="20" viewBox="0 0 20 20" fill="none" xmlns="http://www.w3.org/2000/svg">
<g clip-path="url(#clip0_17_2)">
<mask id="mask0_17_2" style="mask-type:luminance" maskUnits="userSpaceOnUse" x="0" y="0" width="20" height="20">
<path d="M20 0L20 20L-8.74228e-07 20L0 -8.74228e-07L20 0Z" fill="white"/>
</mask>
<g mask="url(#mask0_17_2)">
<path d="M10.9598 16.7427L19.6013 8.04698C19.8564 7.79006 19.9996 7.44265 19.9996 7.08055C19.9996 6.71844 19.8564 6.37104 19.6013 6.11412C19.4119 5.92338 19.1699 5.79339 18.9064 5.74071C18.6428 5.68804 18.3695 5.71508 18.1213 5.81838C17.9566 5.88697 17.807 5.98748 17.6813 6.11412L9.99979 13.8441L2.31839 6.11411C2.19253 5.98742 2.04285 5.88688 1.87798 5.81827C1.7131 5.74966 1.53628 5.71434 1.35769 5.71435C1.17911 5.71434 1.00229 5.74966 0.83741 5.81827C0.672532 5.88688 0.522852 5.98742 0.396992 6.11411C0.142492 6.37139 -0.000207945 6.71866 -0.000207961 7.08054C-0.000207977 7.44241 0.142492 7.78968 0.396992 8.04697L9.03839 16.7413C9.16419 16.8679 9.31369 16.9684 9.47849 17.037C9.64319 17.1056 9.81989 17.1409 9.99839 17.1409C10.1769 17.1409 10.3536 17.1056 10.5183 17.037C10.6831 16.9684 10.8326 16.8679 10.9584 16.7413" fill="#666666"/>
</g>
</g>
<defs>
<clipPath id="clip0_17_2">
<rect width="20" height="20" fill="white" transform="translate(20) rotate(90)"/>
</clipPath>
</defs>
</svg>
